name 900006_13.mot
datacolumns 153
datarows 4
range 0.77500004 0.80000001
endheader

                time	           pelvis_tx	           pelvis_ty	           pelvis_tz	         pelvis_tilt	         pelvis_list	     pelvis_rotation	       hip_flexion_r	     hip_adduction_r	      hip_rotation_r	        knee_angle_r	       ankle_angle_r	    subtalar_angle_r	         mtp_angle_r	       hip_flexion_l	     hip_adduction_l	      hip_rotation_l	        knee_angle_l	       ankle_angle_l	    subtalar_angle_l	         mtp_angle_l	    lumbar_extension	      lumbar_bending	     lumbar_rotation	     ground_force_vx	     ground_force_vy	     ground_force_vz	     ground_force_px	     ground_force_py	     ground_force_pz	     ground_force_vx	     ground_force_vy	     ground_force_vz	     ground_force_px	     ground_force_py	     ground_force_pz	     ground_torque_x	     ground_torque_y	     ground_torque_z	     ground_torque_x	     ground_torque_y	     ground_torque_z	    ground_marker_px	    ground_marker_py	    ground_marker_pz	    ground_marker_px	    ground_marker_py	    ground_marker_pz	    ground_marker_px	    ground_marker_py	    ground_marker_pz	    ground_marker_px	    ground_marker_py	    ground_marker_pz	    ground_marker_px	    ground_marker_py	    ground_marker_pz	    ground_marker_px	    ground_marker_py	    ground_marker_pz	    ground_marker_px	    ground_marker_py	    ground_marker_pz	    ground_marker_px	    ground_marker_py	    ground_marker_pz	    ground_marker_px	    ground_marker_py	    ground_marker_pz	    ground_marker_px	    ground_marker_py	    ground_marker_pz	    ground_marker_px	    ground_marker_py	    ground_marker_pz	    ground_marker_px	    ground_marker_py	    ground_marker_pz	    ground_marker_px	    ground_marker_py	    ground_marker_pz	    ground_marker_px	    ground_marker_py	    ground_marker_pz	    ground_marker_px	    ground_marker_py	    ground_marker_pz	    ground_marker_px	    ground_marker_py	    ground_marker_pz	    ground_marker_px	    ground_marker_py	    ground_marker_pz	    ground_marker_px	    ground_marker_py	    ground_marker_pz	    ground_marker_px	    ground_marker_py	    ground_marker_pz	    ground_marker_px	    ground_marker_py	    ground_marker_pz	    ground_marker_px	    ground_marker_py	    ground_marker_pz	    ground_marker_px	    ground_marker_py	    ground_marker_pz	    ground_marker_px	    ground_marker_py	    ground_marker_pz	    ground_marker_px	    ground_marker_py	    ground_marker_pz	    ground_marker_px	    ground_marker_py	    ground_marker_pz	    ground_marker_px	    ground_marker_py	    ground_marker_pz	    ground_marker_px	    ground_marker_py	    ground_marker_pz	    ground_marker_px	    ground_marker_py	    ground_marker_pz	    ground_marker_px	    ground_marker_py	    ground_marker_pz	    ground_marker_px	    ground_marker_py	    ground_marker_pz	    ground_marker_px	    ground_marker_py	    ground_marker_pz	    ground_marker_px	    ground_marker_py	    ground_marker_pz	    ground_marker_px	    ground_marker_py	    ground_marker_pz	    ground_marker_px	    ground_marker_py	    ground_marker_pz	    ground_marker_px	    ground_marker_py	    ground_marker_pz	    ground_marker_px	    ground_marker_py	    ground_marker_pz	    ground_marker_px	    ground_marker_py	    ground_marker_pz	
          0.77500004	          2.09607053	          0.84509254	         -0.26702601	          2.18159485	          0.44634271	         -0.72616392	          2.60050678	          1.98964381	         -2.80840468	        -10.31174850	          3.72428179	          0.00000000	          0.00000000	         15.91539192	         -0.02331143	          0.41242677	        -48.49253464	          8.96563721	          0.00000000	          0.00000000	         -9.01978397	          2.46657109	         -0.38405618	         -8.40582193	        371.00945398	        -15.57497295	          2.07060742	          0.00000000	         -0.22705000	          0.00000000	          0.00000000	          0.00000000	          1.66329089	          0.00000000	         -0.29143466	          0.00000000	          1.20379150	          0.00000000	          0.00000000	          0.00000000	          0.00000000	          2.06081247	          0.77341896	         -0.27589500	          2.05205488	          0.76999080	         -0.21924268	          2.06957006	          0.77684712	         -0.33254731	          2.00984597	          0.42756128	         -0.21514179	          2.13397169	          0.43103147	         -0.33611453	          2.01535368	          0.06640451	         -0.23483035	          1.95947480	          0.11901187	         -0.32418612	          2.09607053	          0.84509254	         -0.26702601	          2.09452939	          0.84447747	         -0.15549174	          2.09761167	          0.84570765	         -0.37856027	          1.92065048	          0.87611997	         -0.24266312	          1.92542529	          0.87399179	         -0.29598287	          2.04605174	          0.42107877	         -0.15550222	          2.13698483	          0.41960478	         -0.39500678	          2.02724862	          0.42705786	         -0.27625877	          2.15240121	          0.42479604	         -0.27615637	          2.00875521	          0.06466111	         -0.19795664	          1.95029247	          0.12267081	         -0.35932228	          2.01639819	          0.06277969	         -0.26823950	          1.95906711	          0.12190157	         -0.29063278	          2.10634756	          1.18953359	         -0.27421847	          2.10547757	          1.08761728	         -0.28161022	          2.00541973	          1.26930737	         -0.26782238	          2.09566355	          0.04719410	         -0.22463442	          2.03104329	          0.06937796	         -0.33212984	          2.16354656	          0.56133229	         -0.17864108	          2.21292281	          0.59876597	         -0.40466422	          2.10950160	          0.59917766	         -0.14325351	          2.17720008	          0.63700503	         -0.34015074	          2.09682226	          0.54241896	         -0.15005478	          2.18622756	          0.57838809	         -0.33288640	          2.13980484	          0.17781574	         -0.20010050	          1.99308586	          0.21476978	         -0.45221555	          2.06185198	          0.16603780	         -0.21951915	          1.99612558	          0.20645051	         -0.37273592	          2.10778451	          1.18688571	         -0.21843928	          2.11044955	          1.19189548	         -0.32370624	
          0.78333336	          2.10458827	          0.84495282	         -0.26681271	          2.13744450	          0.63514876	         -0.69005549	          1.77078724	          1.79345560	         -2.73057365	         -9.92276382	          4.00821352	          0.00000000	          0.00000000	         16.75641823	          0.17852351	          0.05439001	        -46.86049652	          9.70451260	          0.00000000	          0.00000000	         -9.00709724	          2.17893362	         -0.13960962	         -7.90535707	        375.36456997	        -15.61458686	          2.07549219	          0.00000000	         -0.22708217	          0.00000000	          0.00000000	          0.00000000	          1.66573010	          0.00000000	         -0.29100342	          0.00000000	          1.20508057	          0.00000000	          0.00000000	          0.00000000	          0.00000000	          2.06927085	          0.77328742	         -0.27600557	          2.06050158	          0.76965898	         -0.21936752	          2.07804012	          0.77691579	         -0.33264360	          2.01399803	          0.42760295	         -0.21522476	          2.14436746	          0.43193221	         -0.33597168	          2.01554179	          0.06651717	         -0.23504488	          1.98552322	          0.11267608	         -0.32513928	          2.10458827	          0.84495282	         -0.26681271	          2.10305309	          0.84396476	         -0.15528028	          2.10612345	          0.84594095	         -0.37834516	          1.92962468	          0.87602025	         -0.24257550	          1.93354189	          0.87409580	         -0.29593253	          2.04929447	          0.42087290	         -0.15557769	          2.15008807	          0.42086774	         -0.39486194	          2.03115916	          0.42693707	         -0.27616891	          2.16328526	          0.42657098	         -0.27535227	          2.00895190	          0.06481280	         -0.19816782	          1.97608399	          0.11613008	         -0.36022806	          2.01653266	          0.06341617	         -0.26853856	          1.98493934	          0.11568897	         -0.29154932	          2.11535096	          1.18963277	         -0.27454361	          2.11440587	          1.08770835	         -0.28181264	          2.01456070	          1.26938820	         -0.26763046	          2.09564996	          0.04705065	         -0.22480032	          2.05962420	          0.06713177	         -0.33410177	          2.16881227	          0.55968463	         -0.17885631	          2.22327876	          0.60054266	         -0.40507975	          2.11552715	          0.59814000	         -0.14341205	          2.18806839	          0.63817185	         -0.34077632	          2.10229158	          0.54164898	         -0.15016286	          2.19701910	          0.57993472	         -0.33320957	          2.14086151	          0.17676863	         -0.20036831	          2.01473570	          0.21059908	         -0.45271182	          2.06332564	          0.16629383	         -0.21959880	          2.01803136	          0.20202079	         -0.37353787	          2.11706209	          1.18705952	         -0.21899295	          2.11920881	          1.19192541	         -0.32382947	
          0.79166669	          2.11312294	          0.84465945	         -0.26670215	          2.07247734	          0.78517306	         -0.65110582	          0.98184299	          1.63791823	         -2.67865062	         -9.57853413	          4.34905529	          0.00000000	          0.00000000	         17.55452538	          0.34831631	         -0.27351478	        -45.03977203	         10.20772362	          0.00000000	          0.00000000	         -9.04556656	          1.71009052	          0.01829828	         -7.11490346	        379.80153039	        -15.61521349	          2.08011572	          0.00000000	         -0.22714206	          0.00000000	          0.00000000	          0.00000000	          1.66843591	          0.00000000	         -0.29065036	          0.00000000	          1.21200928	          0.00000000	          0.00000000	          0.00000000	          0.00000000	          2.07769799	          0.77305329	         -0.27620944	          2.06891870	          0.76926678	         -0.21958332	          2.08647728	          0.77683985	         -0.33283558	          2.01790714	          0.42748651	         -0.21541132	          2.15264487	          0.43390089	         -0.33590528	          2.01569819	          0.06660152	         -0.23529188	          2.01214242	          0.10644316	         -0.32628047	          2.11312294	          0.84465945	         -0.26670215	          2.11161041	          0.84337205	         -0.15514261	          2.11463547	          0.84594685	         -0.37826169	          1.93855894	          0.87582606	         -0.24249518	          1.94162655	          0.87413025	         -0.29586524	          2.05265713	          0.42064452	         -0.15571119	          2.16275191	          0.42199948	         -0.39474410	          2.03497744	          0.42617688	         -0.27549693	          2.17244959	          0.42770723	         -0.27618513	          2.00912023	          0.06494123	         -0.19841067	          2.00239348	          0.10969564	         -0.36130378	          2.01632524	          0.06516171	         -0.26900226	          2.01121497	          0.10937020	         -0.29262090	          2.12424588	          1.18938851	         -0.27496898	          2.12309098	          1.08743012	         -0.28171277	          2.02348518	          1.26942837	         -0.26733515	          2.09564519	          0.04691868	         -0.22499697	          2.08847904	          0.06497420	         -0.33614600	          2.17419267	          0.55802876	         -0.17908964	          2.23338580	          0.60196245	         -0.40546784	          2.12130475	          0.59706157	         -0.14379902	          2.19913960	          0.63910651	         -0.34079656	          2.10752535	          0.54094166	         -0.15019466	          2.20744205	          0.58117169	         -0.33360419	          2.14199185	          0.17569917	         -0.20067146	          2.03642011	          0.20644277	         -0.45327815	          2.06539869	          0.16729067	         -0.21914698	          2.04006720	          0.19763440	         -0.37416539	          2.12616372	          1.18708384	         -0.21911818	          2.12792063	          1.19143450	         -0.32457536	
          0.80000001	          2.12167716	          0.84423649	         -0.26667112	          1.99364853	          0.89485186	         -0.60814101	          0.22323799	          1.52562940	         -2.66059017	         -9.27158642	          4.75995588	          0.00000000	          0.00000000	         18.29980850	          0.48223749	         -0.56493473	        -43.04064941	         10.45925140	          0.00000000	          0.00000000	         -9.13760567	          1.49465239	          0.07378658	         -6.03606693	        384.08646585	        -15.56340446	          2.08448633	          0.00000000	         -0.22721896	          0.00000000	          0.00000000	          0.00000000	          1.67138953	          0.00000000	         -0.29033398	          0.00000000	          1.22635950	          0.00000000	          0.00000000	          0.00000000	          0.00000000	          2.08611679	          0.77269971	         -0.27636087	          2.07735109	          0.76881713	         -0.21973917	          2.09488249	          0.77658236	         -0.33298260	          2.02128530	          0.42769346	         -0.21566349	          2.16293716	          0.43457964	         -0.33587152	          2.01584291	          0.06665885	         -0.23557214	          2.03929377	          0.10046179	         -0.32757938	          2.12167716	          0.84423649	         -0.26667112	          2.12020755	          0.84272569	         -0.15506694	          2.12314677	          0.84574729	         -0.37827528	          1.94743836	          0.87555581	         -0.24242611	          1.94987702	          0.87404966	         -0.29576334	          2.05612636	          0.42039734	         -0.15588138	          2.17497754	          0.42297834	         -0.39465350	          2.03818417	          0.42546707	         -0.27429894	          2.18290544	          0.42828879	         -0.27673078	          2.00927520	          0.06504549	         -0.19868700	          2.02919245	          0.10350062	         -0.36252192	          2.01608682	          0.06483747	         -0.26918960	          2.03755856	          0.10260697	         -0.29376897	          2.13303280	          1.18886745	         -0.27543327	          2.13156128	          1.08690238	         -0.28201291	          2.03243184	          1.26926672	         -0.26723018	          2.09566641	          0.04682389	         -0.22520885	          2.11758113	          0.06298240	         -0.33824542	          2.17969966	          0.55637175	         -0.17929594	          2.24323463	          0.60303247	         -0.40580335	          2.12711620	          0.59596831	         -0.14416322	          2.20905805	          0.63980687	         -0.34115189	          2.11264396	          0.54039979	         -0.15004018	          2.21749520	          0.58189589	         -0.33402941	          2.14320230	          0.17460205	         -0.20098804	          2.05816221	          0.20235388	         -0.45389485	          2.06594777	          0.16589600	         -0.21912037	          2.06202841	          0.19310240	         -0.37403384	          2.13504481	          1.18664312	         -0.21952246	          2.13662386	          1.19082618	         -0.32510936	
